# xmcd CD database file
#
# Track frame offsets:
#	182
#	6065
#	12452
#	24400
#	29670
#	36485
#	41292
#	44837
#	51565
#	62440
#	76512
#	83212
#	92552
#	100177
#	104557
#	114867
#	128885
#	137757
#	145057
#	157805
#	167027
#	177675
#	185680
#	193962
#	200420
#	212187
#	222337
#	227547
#	233860
#	236817
#	243597
#	249032
#	269595
#	293962
#	309577
#
# Disc length: 4619 seconds
#
# Revision: 1
# Processed by: cddbd v1.4PL0 Copyright (c) Steve Scherf et al.
# Submitted via: CDex 1.40Release
#
DISCID=fa120923
DTITLE=Michel Legrand - Four Piano Blues
DYEAR=1994
DGENRE=Classical
TTITLE0=Conlon Nancarrow - Prelude for Piano
TTITLE1=George Gershwin - 3 Preludes Preludes 1. Allegro Ben Ritmato e Deciso
TTITLE2=George Gershwin - 3 Preludes Preludes 2. Andante Con Moto e Poco Rubato
TTITLE3=George Gershwin - 3 Preludes Preludes 3. Allegro Ben Ritmato e Deciso
TTITLE4=Amy Beach - 5 Improvisations for Piano Op.148 Improvisation 1
TTITLE5=Amy Beach - 5 Improvisations for Piano Op.148 Improvisation 2
TTITLE6=Amy Beach - 5 Improvisations for Piano Op.148 Improvisation 3
TTITLE7=Amy Beach - 5 Improvisations for Piano Op.148 Improvisation 4
TTITLE8=Amy Beach - 5 Improvisations for Piano Op.148 Improvisation 5
TTITLE9=Scott Joplin - Maple Leaf Rag
TTITLE10=Aaron Copland - Four Piano Blues Blues N.1
TTITLE11=Aaron Copland - Four Piano Blues Blues N.2
TTITLE12=Aaron Copland - Four Piano Blues Blues N.3
TTITLE13=Aaron Copland - Four Piano Blues Blues N.4
TTITLE14=Morton Gould - Boogie-Woogie Etude
TTITLE15=Louis Moreau Gottschalk - Manchega Op.38 - Etude de Concert
TTITLE16=Ed MacDowell - New England Idyls Op.62 An Old Garden
TTITLE17=Ed MacDowell - New England Idyls Op.62 Mid-summer
TTITLE18=Ed MacDowell - New England Idyls Op.62 Mid-winter
TTITLE19=Ed MacDowell - New England Idyls Op.62 With Sweet Lavender
TTITLE20=Ed MacDowell - New England Idyls Op.62 In Deep Woods
TTITLE21=Ed MacDowell - New England Idyls Op.62 Indian Idyl
TTITLE22=Ed MacDowell - New England Idyls Op.62 To an Old White Pine
TTITLE23=Ed MacDowell - New England Idyls Op.62 From Puritan Days
TTITLE24=Ed MacDowell - New England Idyls Op.62 From a Log Cabin
TTITLE25=Ed MacDowell - New England Idyls Op.62 The Joy of Autumn
TTITLE26=Leonard Bernstein - 5 Anniversaries First Anniversary "For Elizabeth Rudolf"
TTITLE27=Leonard Bernstein - 5 Anniversaries Second Anniversary "For Lucas Foss"
TTITLE28=Leonard Bernstein - 5 Anniversaries Third Anniversary "For Elizabeth B. Ehrman"
TTITLE29=Leonard Bernstein - 5 Anniversaries Fourth Anniversary "For Sandy Gellhorl"
TTITLE30=Leonard Bernstein - 5 Anniversaries Fifth Anniversary "For Susannah Kyle"
TTITLE31=Scott Joplin - The Entertainer
TTITLE32=Samuel Barber - Ballad for a Piano Op.46
TTITLE33=Louis Moreau Gottschalk - Le Banjo Op.15
TTITLE34=John Cage - Bacchanale pour Piano Prepare
EXTD=YEAR: 1994 ID3G: 32
EXTT0=
EXTT1=
EXTT2=
EXTT3=
EXTT4=
EXTT5=
EXTT6=
EXTT7=
EXTT8=
EXTT9=
EXTT10=
EXTT11=
EXTT12=
EXTT13=
EXTT14=
EXTT15=
EXTT16=
EXTT17=
EXTT18=
EXTT19=
EXTT20=
EXTT21=
EXTT22=
EXTT23=
EXTT24=
EXTT25=
EXTT26=
EXTT27=
EXTT28=
EXTT29=
EXTT30=
EXTT31=
EXTT32=
EXTT33=
EXTT34=
PLAYORDER=
